<svg xmlns="http://www.w3.org/2000/svg" viewBox="0 0 64 64">
  <defs>
    <linearGradient id="g" x1="0" y1="0" x2="1" y2="1">
      <stop offset="0" stop-color="#f0b030"/>
      <stop offset="1" stop-color="#a85010"/>
    </linearGradient>
  </defs>
  <!-- rounded gold tile -->
  <rect width="64" height="64" rx="14" fill="url(#g)"/>
  <!-- subtle top highlight -->
  <rect width="64" height="32" rx="14" fill="#ffffff" opacity="0.12"/>
  <!-- open book base (technical manual) -->
  <path d="M14 20 Q22 16 31 19 L31 46 Q22 43 14 47 Z" fill="#0c0f16"/>
  <path d="M50 20 Q42 16 33 19 L33 46 Q42 43 50 47 Z" fill="#161b26"/>
  <!-- spine -->
  <rect x="31" y="18.5" width="2" height="28" fill="#0c0f16"/>
  <!-- thermal/insulation wave lines on the right page -->
  <path d="M36 25 q3 -2 6 0 t6 0" fill="none" stroke="#f0b030" stroke-width="2" stroke-linecap="round"/>
  <path d="M36 31 q3 -2 6 0 t6 0" fill="none" stroke="#f0b030" stroke-width="2" stroke-linecap="round" opacity="0.7"/>
  <path d="M36 37 q3 -2 6 0 t6 0" fill="none" stroke="#f0b030" stroke-width="2" stroke-linecap="round" opacity="0.45"/>
  <!-- building roofline on the left page -->
  <path d="M17 38 L23 32 L29 38" fill="none" stroke="#f0b030" stroke-width="2" stroke-linecap="round" stroke-linejoin="round"/>
  <rect x="19.5" y="38" width="7" height="5" fill="#f0b030" opacity="0.85"/>
</svg>
